<svg width="35" height="40" viewBox="0 0 35 40" fill="none" xmlns="http://www.w3.org/2000/svg">
<g clip-path="url(#clip0_116_47)">
<path d="M17.5 0C16.1172 0 15 1.11719 15 2.5V4C9.29687 5.15625 5 10.2031 5 16.25V17.7188C5 21.3906 3.64844 24.9375 1.21094 27.6875L0.632812 28.3359C-0.0234376 29.0703 -0.179688 30.125 0.21875 31.0234C0.617187 31.9219 1.51562 32.5 2.5 32.5H32.5C33.4844 32.5 34.375 31.9219 34.7812 31.0234C35.1875 30.125 35.0234 29.0703 34.3672 28.3359L33.7891 27.6875C31.3516 24.9375 30 21.3984 30 17.7188V16.25C30 10.2031 25.7031 5.15625 20 4V2.5C20 1.11719 18.8828 0 17.5 0ZM21.0391 38.5391C21.9766 37.6016 22.5 36.3281 22.5 35H17.5H12.5C12.5 36.3281 13.0234 37.6016 13.9609 38.5391C14.8984 39.4766 16.1719 40 17.5 40C18.8281 40 20.1016 39.4766 21.0391 38.5391Z" fill="black"/>
</g>
<defs>
<clipPath id="clip0_116_47">
<rect width="35" height="40" fill="white"/>
</clipPath>
</defs>
</svg>
