<svg width="35" height="32" viewBox="0 0 35 32" fill="none" xmlns="http://www.w3.org/2000/svg">
<path d="M34.9879 15.5252C34.9879 16.6189 34.0764 17.4757 33.0434 17.4757H31.099L31.1415 27.2101C31.1415 27.3741 31.1293 27.5382 31.1111 27.7023V28.6866C31.1111 30.0295 30.0234 31.1172 28.6806 31.1172H27.7083C27.6415 31.1172 27.5747 31.1172 27.5078 31.1111C27.4227 31.1172 27.3377 31.1172 27.2526 31.1172L25.2778 31.1111H23.8194C22.4766 31.1111 21.3889 30.0234 21.3889 28.6806V27.2222V23.3333C21.3889 22.2578 20.52 21.3889 19.4444 21.3889H15.5556C14.48 21.3889 13.6111 22.2578 13.6111 23.3333V27.2222V28.6806C13.6111 30.0234 12.5234 31.1111 11.1806 31.1111H9.72222H7.78385C7.69271 31.1111 7.60156 31.105 7.51042 31.099C7.4375 31.105 7.36458 31.1111 7.29167 31.1111H6.31945C4.97656 31.1111 3.88889 30.0234 3.88889 28.6806V21.875C3.88889 21.8203 3.88889 21.7595 3.89497 21.7049V17.4696H1.95052C0.856771 17.4696 0.00607681 16.6189 0.00607681 15.5191C0.00607681 14.9722 0.188368 14.4861 0.613716 14.0608L16.1875 0.486111C16.6128 0.0607639 17.099 0 17.5243 0C17.9497 0 18.4358 0.121528 18.8003 0.425347L34.3194 14.0668C34.8056 14.4922 35.0486 14.9783 34.9879 15.5252Z" fill="black"/>
</svg>
