<svg width="35" height="35" viewBox="0 0 35 35" fill="none" xmlns="http://www.w3.org/2000/svg">
<path d="M6.5625 6.5625C6.5625 4.14941 8.52441 2.1875 10.9375 2.1875H30.625C33.0381 2.1875 35 4.14941 35 6.5625V28.4375C35 30.8506 33.0381 32.8125 30.625 32.8125H5.46875C2.44727 32.8125 0 30.3652 0 27.3438V8.75C0 7.54004 0.977539 6.5625 2.1875 6.5625C3.39746 6.5625 4.375 7.54004 4.375 8.75V27.3438C4.375 27.9453 4.86719 28.4375 5.46875 28.4375C6.07031 28.4375 6.5625 27.9453 6.5625 27.3438V6.5625ZM10.9375 8.20312V13.6719C10.9375 14.5811 11.6689 15.3125 12.5781 15.3125H20.2344C21.1436 15.3125 21.875 14.5811 21.875 13.6719V8.20312C21.875 7.29395 21.1436 6.5625 20.2344 6.5625H12.5781C11.6689 6.5625 10.9375 7.29395 10.9375 8.20312ZM25.1562 7.65625C25.1562 8.25781 25.6484 8.75 26.25 8.75H29.5312C30.1328 8.75 30.625 8.25781 30.625 7.65625C30.625 7.05469 30.1328 6.5625 29.5312 6.5625H26.25C25.6484 6.5625 25.1562 7.05469 25.1562 7.65625ZM25.1562 14.2188C25.1562 14.8203 25.6484 15.3125 26.25 15.3125H29.5312C30.1328 15.3125 30.625 14.8203 30.625 14.2188C30.625 13.6172 30.1328 13.125 29.5312 13.125H26.25C25.6484 13.125 25.1562 13.6172 25.1562 14.2188ZM10.9375 20.7812C10.9375 21.3828 11.4297 21.875 12.0312 21.875H29.5312C30.1328 21.875 30.625 21.3828 30.625 20.7812C30.625 20.1797 30.1328 19.6875 29.5312 19.6875H12.0312C11.4297 19.6875 10.9375 20.1797 10.9375 20.7812ZM10.9375 27.3438C10.9375 27.9453 11.4297 28.4375 12.0312 28.4375H29.5312C30.1328 28.4375 30.625 27.9453 30.625 27.3438C30.625 26.7422 30.1328 26.25 29.5312 26.25H12.0312C11.4297 26.25 10.9375 26.7422 10.9375 27.3438Z" fill="black"/>
</svg>
