<svg width="35" height="35" viewBox="0 0 35 35" fill="none" xmlns="http://www.w3.org/2000/svg">
<path d="M4.375 2.1875C1.96191 2.1875 0 4.14941 0 6.5625V28.4375C0 30.8506 1.96191 32.8125 4.375 32.8125H30.625C33.0381 32.8125 35 30.8506 35 28.4375V13.125C35 10.7119 33.0381 8.75 30.625 8.75H5.46875C4.86719 8.75 4.375 8.25781 4.375 7.65625C4.375 7.05469 4.86719 6.5625 5.46875 6.5625H30.625C31.835 6.5625 32.8125 5.58496 32.8125 4.375C32.8125 3.16504 31.835 2.1875 30.625 2.1875H4.375ZM28.4375 18.5938C29.0177 18.5938 29.5741 18.8242 29.9843 19.2345C30.3945 19.6447 30.625 20.2011 30.625 20.7812C30.625 21.3614 30.3945 21.9178 29.9843 22.328C29.5741 22.7383 29.0177 22.9688 28.4375 22.9688C27.8573 22.9688 27.3009 22.7383 26.8907 22.328C26.4805 21.9178 26.25 21.3614 26.25 20.7812C26.25 20.2011 26.4805 19.6447 26.8907 19.2345C27.3009 18.8242 27.8573 18.5938 28.4375 18.5938Z" fill="black"/>
</svg>
